<svg width="13" height="13" viewBox="0 0 500 500" fill="none" xmlns="http://www.w3.org/2000/svg">
    <path d="M344.596 304.16C344.119 341.936 329.141 378.083 302.76 405.126L405.125 302.762L406.142 301.617C433.267 274.623 448.664 238.028 448.995 199.762C449.136 182.534 446.297 165.412 440.602 149.152C435.706 135.323 428.716 122.329 419.875 110.622L316.494 214.004L315.476 215.148C324.254 226.828 331.2 239.778 336.077 253.55C341.862 269.79 344.746 286.921 344.596 304.16Z" fill="#0D9373"/>
    <path d="M95.8704 198.236H95.9975C114.145 180.426 136.633 167.67 161.231 161.232C172.85 158.154 184.816 156.573 196.836 156.527C214.072 156.269 231.215 159.112 247.446 164.92C261.207 169.823 274.152 176.767 285.848 185.52L286.993 184.502L390.374 81.121C378.664 72.3186 365.668 65.3706 351.845 60.5209C325.79 51.2059 297.624 49.4875 270.63 55.5662C243.636 61.6449 218.926 75.2703 199.379 94.8543C199.009 95.1606 198.668 95.5012 198.362 95.8716L95.8704 198.236Z" fill="#0D9373"/>
    <path d="M52 302.762V426.743L101.084 377.786C97.2828 368.848 96.7099 358.866 99.4637 349.552C102.217 340.238 108.126 332.172 116.177 326.738C124.227 321.304 133.917 318.84 143.585 319.769C153.254 320.699 162.297 324.963 169.165 331.831C176.033 338.699 180.297 347.743 181.227 357.411C182.156 367.079 179.692 376.769 174.258 384.82C168.824 392.87 160.758 398.779 151.444 401.532C142.13 404.286 132.148 403.713 123.21 399.912L74.2531 448.996H198.362C237.141 448.984 274.328 433.57 301.743 406.143C302.05 405.773 302.39 405.432 302.76 405.126C320.57 386.929 333.325 364.4 339.764 339.765C311.34 347.124 281.367 345.84 253.677 336.078C239.848 331.181 226.854 324.191 215.147 315.35C204.004 306.92 194.076 296.993 185.646 285.849C176.832 274.172 169.843 261.223 164.919 247.447C159.172 231.156 156.331 213.983 156.526 196.71C156.627 184.735 158.207 172.819 161.231 161.232C136.633 167.67 114.145 180.426 95.9975 198.236L94.8531 199.253C81.2575 212.843 70.4746 228.98 63.1214 246.741C55.7683 264.502 51.9891 283.539 52 302.762Z" fill="#18E299"/>
</svg>
