<svg width="36" height="36" viewBox="0 0 36 36" fill="none" xmlns="http://www.w3.org/2000/svg">
<rect width="36" height="36" fill="#041811"/>
<path d="M24.048 12.2544C24.0336 12.24 24.0264 12.2256 24.012 12.2184L24.084 12.2904C24.0768 12.276 24.0624 12.2688 24.048 12.2544Z" fill="#4063AD" stroke="#221F1F" stroke-miterlimit="10"/>
<path d="M23.862 21.4078C23.8322 23.7676 22.8965 26.0257 21.2485 27.715V27.715L27.6431 21.3204L27.7067 21.2489C29.4012 19.5627 30.363 17.2766 30.3837 14.8861C30.3925 13.8099 30.2151 12.7403 29.8594 11.7245C29.5535 10.8607 29.1168 10.0489 28.5646 9.31763L22.1064 15.7758L22.0429 15.8473C22.5912 16.5769 23.0252 17.3859 23.3298 18.2462C23.6912 19.2607 23.8713 20.3309 23.862 21.4078Z" fill="#0D9373"/>
<path d="M8.32422 14.7909H8.33216C9.46581 13.6783 10.8706 12.8814 12.4072 12.4793C13.1331 12.287 13.8806 12.1882 14.6315 12.1854C15.7082 12.1692 16.7791 12.3468 17.793 12.7096C18.6527 13.0159 19.4614 13.4497 20.192 13.9965L20.2635 13.933L26.7216 7.4748C25.9901 6.92493 25.1783 6.49089 24.3147 6.18794C22.6871 5.60603 20.9276 5.49869 19.2413 5.87842C17.555 6.25815 16.0114 7.10932 14.7903 8.33271C14.7672 8.35185 14.7459 8.37312 14.7268 8.39626L8.32422 14.7909Z" fill="#0D9373"/>
<path d="M5.58374 21.3205V29.0655L8.64998 26.0072C8.41252 25.4489 8.37673 24.8253 8.54876 24.2434C8.72079 23.6616 9.08991 23.1577 9.59281 22.8183C10.0957 22.4788 10.701 22.3249 11.305 22.383C11.909 22.441 12.4739 22.7074 12.903 23.1364C13.332 23.5655 13.5984 24.1304 13.6564 24.7344C13.7145 25.3383 13.5606 25.9437 13.2211 26.4466C12.8817 26.9495 12.3778 27.3186 11.7959 27.4906C11.2141 27.6626 10.5905 27.6269 10.0322 27.3894L6.97387 30.4556H14.7268C17.1494 30.4549 19.4724 29.492 21.185 27.7786C21.2041 27.7555 21.2254 27.7342 21.2485 27.7151C22.3611 26.5783 23.1579 25.171 23.5602 23.6321C21.7845 24.0918 19.9121 24.0116 18.1823 23.4017C17.3185 23.0958 16.5067 22.6591 15.7754 22.1069C15.0793 21.5802 14.4591 20.9601 13.9325 20.264C13.3819 19.5345 12.9453 18.7256 12.6377 17.865C12.2787 16.8474 12.1012 15.7746 12.1134 14.6955V14.6955C12.1197 13.9475 12.2184 13.2031 12.4073 12.4792C10.8707 12.8814 9.46588 13.6783 8.33223 14.7908L8.26074 14.8544C7.41143 15.7033 6.73784 16.7114 6.27849 17.8209C5.81914 18.9304 5.58306 20.1196 5.58374 21.3205V21.3205Z" fill="#18E299"/>
</svg>
